<svg width="235" height="96" viewBox="0 0 235 96" fill="none" xmlns="http://www.w3.org/2000/svg">
<g clip-path="url(#clip0_3907_1109)">
<path d="M89.485 94.9043C89.3461 94.9043 89.2334 94.7926 89.2334 94.6537V21.6888C89.2334 21.5509 89.3462 21.4392 89.485 21.4392C89.6239 21.4392 89.7366 21.5509 89.7366 21.6888V94.6536C89.7366 94.7926 89.6239 94.9043 89.485 94.9043Z" fill="white"/>
<path d="M32.9189 41.8051L33.9467 20.5986H32.7712C32.099 20.5986 31.725 21.0591 31.6443 21.7285C31.5705 22.3357 29.7169 39.9641 29.7169 39.9641C29.7169 39.9641 5.84087 41.8556 5.11326 41.9216C4.38463 41.9867 3.92706 42.4035 3.92706 43.0233V44.2366L31.552 43.1845C32.3166 43.1117 32.8519 42.5464 32.9189 41.8051Z" fill="#00AA8C"/>
<path d="M22.2266 24.051H21.4154C20.8781 24.051 20.4954 24.4755 20.3584 24.9836L19.3859 29.6302C19.3859 29.6302 12.5545 30.4307 11.8774 30.6124C11.2012 30.795 10.8291 31.1623 10.8291 31.7024V32.5127L21.7718 32.0172L22.2266 24.051Z" fill="#00AA8C"/>
<path d="M28.087 22.3251H26.8785C26.2014 22.3251 25.8652 22.8458 25.7846 23.454C25.7059 24.0408 24.3215 34.5677 24.3215 34.5677C24.3215 34.5677 9.43166 35.9608 8.56416 36.0589C7.69565 36.157 7.37796 36.6515 7.37796 37.1985V38.375L27.166 37.4132L28.087 22.3251Z" fill="#00AA8C"/>
<path d="M39.0467 60.233C38.3055 60.2641 37.711 60.8587 37.6799 61.5999L36.5656 95.9999H37.7411C38.4133 95.9999 38.8048 95.5287 38.868 94.871C38.9262 94.2609 40.8828 63.4476 40.8828 63.4476C40.8828 63.4476 64.6714 61.5493 65.399 61.4842C66.1267 61.4182 66.5852 61.0034 66.5852 60.3826C66.5852 59.7628 66.5843 59.1683 66.5843 59.1683L39.0467 60.233Z" fill="#00AA8C"/>
<path d="M48.2861 85.6438H49.0973C49.6345 85.6438 50.0668 85.231 50.1543 84.7112L51.2122 73.781C51.2122 73.781 56.2329 72.9747 56.909 72.7921C57.5861 72.6104 57.9582 72.2433 57.9582 71.7031V70.8929L48.8263 71.3941L48.2861 85.6438Z" fill="#00AA8C"/>
<path d="M42.4259 92.5477H43.6043C44.3066 92.5477 44.6709 92.0076 44.7282 91.4188C44.7856 90.8301 46.2768 68.8436 46.2768 68.8436C46.2768 68.8436 60.1456 67.4505 61.0141 67.3524C61.8816 67.2543 62.2712 66.8783 62.2712 66.207V65.0306L43.4322 65.9991L42.4259 92.5477Z" fill="#00AA8C"/>
<path d="M51.9099 32.0174H37.1269L37.189 30.7525C37.2221 30.0909 37.7399 29.5605 38.4005 29.5857L52.689 30.5582V31.2382C52.689 31.6686 52.3403 32.0174 51.9099 32.0174Z" fill="#FFD400"/>
<path d="M56.4917 37.6784H36.8465L36.9086 36.4135C36.9417 35.7529 37.4585 35.2215 38.1201 35.2468L57.2709 36.2192V36.8992C57.2709 37.3296 56.9221 37.6784 56.4917 37.6784Z" fill="#FFD400"/>
<path d="M61.074 43.3394H36.5656L36.6267 42.0745C36.6608 41.41 37.1766 40.8826 37.8382 40.9078L61.8532 41.8803V42.5603C61.8532 42.9906 61.5044 43.3394 61.074 43.3394Z" fill="#FFD400"/>
<path d="M23.7515 65.7255H33.6712L33.6091 66.9904C33.5779 67.6413 33.0592 68.1824 32.3976 68.1571L22.9733 67.1847V66.5046C22.9733 66.0743 23.321 65.7255 23.7515 65.7255Z" fill="#FFD400"/>
<path d="M19.1645 60.0645H33.9475L33.8854 61.3293C33.8854 61.9929 33.3355 62.5213 32.6739 62.4961L18.3854 61.5236V60.8436C18.3854 60.4132 18.7341 60.0645 19.1645 60.0645Z" fill="#FFD400"/>
<path d="M2.33556 52.208H3.62278L2.98843 50.028L2.33556 52.208ZM3.90738 53.5049H2.04994L1.79637 54.4084C1.70216 54.7446 1.39516 54.9768 1.04637 54.9768H0.00012207L1.90522 48.972C2.00821 48.6476 2.3084 48.428 2.64842 48.428H3.9259L6.06802 54.9768H4.32132L3.90738 53.5049Z" fill="white"/>
<path d="M11.7715 48.428L11.6063 49.7891H9.08629V51.1783H11.3945L11.2294 52.5112H9.08629V54.1967C9.08629 54.627 8.73749 54.9768 8.30715 54.9768H7.36771V49.2072C7.36771 48.7768 7.7165 48.428 8.14684 48.428H11.7715Z" fill="white"/>
<path d="M14.8763 51.3707H15.7497C15.9887 51.3707 16.1732 51.3085 16.3015 51.1822C16.4307 51.0568 16.4948 50.8771 16.4948 50.644V50.4973C16.4948 50.0252 16.246 49.7891 15.7497 49.7891H14.8763V51.3707ZM18.1405 50.6352C18.1405 50.8927 18.1191 51.118 18.0763 51.3114C18.0336 51.5047 17.9656 51.6747 17.8733 51.8214C17.7819 51.9691 17.6673 52.0973 17.5294 52.2081C17.3914 52.3179 17.2273 52.4169 17.0368 52.5024L18.3882 54.9768H16.587L15.4465 52.7045H14.8763V54.1967C14.8763 54.627 14.5275 54.9768 14.0971 54.9768H13.2121V48.428H16.0625C16.4491 48.428 16.7736 48.4815 17.0368 48.5893C17.3001 48.6962 17.5138 48.8419 17.6761 49.0255C17.8383 49.2101 17.9569 49.4228 18.0297 49.6647C18.1036 49.9076 18.1405 50.166 18.1405 50.4419V50.6352Z" fill="white"/>
<path d="M24.3459 48.428L24.1808 49.7619H21.4771V51.0122H24.07L23.9049 52.346H21.4771V53.643H24.3459L24.2652 54.2929C24.2166 54.6835 23.8854 54.9768 23.4919 54.9768H19.7858V49.2072C19.7858 48.7769 20.1346 48.4281 20.5649 48.4281L24.3459 48.428Z" fill="white"/>
<path d="M29.8972 51.5458L31.8188 48.4283H30.4947C30.1546 48.4283 29.8419 48.6139 29.6786 48.9121L25.6955 54.976H27.1644C27.4394 54.976 27.6939 54.8303 27.8338 54.5942L28.8587 52.8611L30.0809 54.976H32.0394L29.8972 51.5458Z" fill="white"/>
<path d="M28.4001 49.4131L27.8745 48.428H25.9258L27.4257 50.8976L28.4001 49.4131Z" fill="white"/>
<path d="M34.4769 54.9762H33.5365V49.2075C33.5365 48.7772 33.8862 48.4274 34.3166 48.4274H35.256V54.1971C35.256 54.6274 34.9073 54.9762 34.4769 54.9762Z" fill="white"/>
<path d="M41.5278 48.4319L40.1036 51.7495L38.6251 48.4319H37.7226C37.2427 48.4319 36.926 48.7467 36.926 49.1809V54.9748L38.5241 54.9758V51.2628L39.5402 53.5419H40.0104C40.4272 53.5419 40.8157 53.2319 41.0411 52.6714C41.2665 52.1109 41.6104 51.2531 41.6104 51.2531V54.9748H42.1962C42.7762 54.9748 43.2037 54.7581 43.2037 54.1199V48.4309L41.5278 48.4319Z" fill="white"/>
<path d="M46.4585 53.7074H47.4873C47.6961 53.7074 47.871 53.6578 48.0119 53.5597C48.1527 53.4616 48.2237 53.2994 48.2237 53.0721V52.9438C48.2237 52.6922 48.1576 52.5115 48.0255 52.4008C47.8934 52.291 47.7021 52.2356 47.4513 52.2356H46.4585V53.7074ZM46.4585 50.9571H47.4513C47.6408 50.9571 47.7952 50.9095 47.9148 50.8143C48.0343 50.7191 48.0945 50.5734 48.0945 50.3772V50.2761C48.0945 50.0614 48.0304 49.9099 47.9012 49.8215C47.7729 49.7321 47.6097 49.6875 47.4145 49.6875H46.4585L46.4585 50.9571ZM44.8856 54.9761V49.2075C44.8856 48.7771 45.2344 48.4274 45.6648 48.4274H47.6165C47.972 48.4274 48.281 48.4692 48.5452 48.5518C48.8085 48.6343 49.0242 48.7528 49.1932 48.9063C49.3622 49.0589 49.4875 49.2405 49.5701 49.4485C49.6527 49.6573 49.6945 49.8876 49.6945 50.1382V50.2674C49.6945 50.5433 49.6362 50.791 49.5196 51.0125C49.403 51.2331 49.2282 51.4108 48.995 51.5459C49.2534 51.6741 49.4584 51.8665 49.6118 52.121C49.7644 52.3746 49.8411 52.665 49.8411 52.9895V53.1187C49.8411 53.6948 49.6517 54.1485 49.2709 54.4797C48.891 54.81 48.2809 54.9761 47.4416 54.9761H44.8856Z" fill="white"/>
<path d="M53.1249 52.2077H54.4112L53.7778 50.0277L53.1249 52.2077ZM54.6968 53.5046H52.8393L52.5858 54.4081C52.4905 54.7442 52.1846 54.9764 51.8358 54.9764H50.7895L52.6946 48.9717C52.7976 48.6472 53.0978 48.4277 53.4378 48.4277H54.7153L56.8574 54.9764H55.1107L54.6968 53.5046Z" fill="white"/>
<path d="M59.5436 48.4278L61.778 52.1067V48.4278H63.3411L63.3401 54.9765H61.8975L59.6631 51.2975V54.1963C59.6631 54.6267 59.3143 54.9764 58.8839 54.9764H58.1V49.2068C58.1 48.7765 58.4488 48.4277 58.8791 48.4277L59.5436 48.4278Z" fill="white"/>
<path d="M70.5125 54.9764L67.9235 51.4927L70.3658 48.4277H68.4617L66.5868 50.9021V48.4277H65.7387C65.3084 48.4277 64.9596 48.7774 64.9596 49.2078V54.9764H66.5868V53.1753L66.8957 52.7867L68.4802 54.9764L70.5125 54.9764Z" fill="white"/>
<path d="M118.299 58.326L117.974 60.6945H114.287V71.9286H111.383V60.6945H107.371L107.695 58.326H118.299Z" fill="white"/>
<path d="M122.464 64.6685H124.698C125.361 64.6685 125.851 64.5092 126.17 64.1915C126.488 63.8729 126.647 63.4076 126.647 62.7965V62.4905C126.647 61.2421 126.016 60.6184 124.756 60.6184H122.464L122.464 64.6685ZM129.475 62.7964C129.475 64.72 128.66 65.98 127.03 66.5794L129.971 71.9283H126.8L124.278 66.9233H122.464V71.9283H119.636V58.3257H125.31C126.048 58.3257 126.682 58.4306 127.21 58.6404C127.739 58.8503 128.172 59.1378 128.51 59.5002C128.847 59.8635 129.093 60.29 129.246 60.7806C129.398 61.2712 129.475 61.8026 129.475 62.3758L129.475 62.7964Z" fill="white"/>
<path d="M134.958 66.3113H138.148L136.563 61.0964L134.958 66.3113ZM138.76 68.566H134.366L133.352 71.9283H130.525L135.053 58.3257H138.11L142.752 71.9283H139.772L138.76 68.566Z" fill="white"/>
<path d="M146.993 69.5592H148.598C149.146 69.5592 149.627 69.496 150.041 69.3679C150.455 69.2416 150.799 69.0249 151.073 68.719C151.346 68.413 151.55 68.0088 151.684 67.5056C151.818 67.0023 151.885 66.3758 151.885 65.6238V64.6116C151.885 63.847 151.818 63.2136 151.684 62.7103C151.551 62.2071 151.346 61.8059 151.073 61.5066C150.799 61.2074 150.455 60.9976 150.041 60.8762C149.627 60.7557 149.146 60.6945 148.598 60.6945H146.993V69.5592ZM144.09 58.326H148.866C150.024 58.326 150.99 58.4785 151.76 58.7835C152.531 59.0896 153.146 59.5131 153.604 60.0542C154.063 60.5963 154.384 61.2462 154.569 62.003C154.754 62.7617 154.846 63.5855 154.846 64.4774V65.7578C154.846 66.6623 154.751 67.4929 154.559 68.2506C154.368 69.0084 154.043 69.6583 153.585 70.1994C153.126 70.7405 152.511 71.1641 151.741 71.4701C150.971 71.7751 150.006 71.9286 148.847 71.9286H144.09L144.09 58.326Z" fill="white"/>
<path d="M166.003 58.326L165.697 60.5993H159.793V63.8858H165.391L165.105 66.1581H159.793V69.6554H166.003L165.697 71.9286H156.89V58.326H166.003Z" fill="white"/>
<path d="M113.809 88.406C112.713 88.406 111.799 88.2758 111.067 88.0145C110.335 87.7542 109.746 87.3646 109.3 86.8487C108.854 86.3329 108.539 85.6898 108.354 84.9194C108.169 84.1491 108.077 83.2475 108.077 82.2158V80.8217C108.077 79.9046 108.17 79.0575 108.354 78.2803C108.539 77.5041 108.86 76.8289 109.32 76.2548C109.777 75.6826 110.389 75.2328 111.153 74.9084C111.918 74.5839 112.879 74.4217 114.038 74.4217C114.688 74.4217 115.287 74.4722 115.834 74.5742C116.381 74.6763 116.834 74.7909 117.191 74.9181L116.713 77.135C116.407 77.033 116.06 76.9495 115.671 76.8863C115.283 76.8222 114.86 76.7901 114.401 76.7901C113.79 76.7901 113.271 76.8513 112.844 76.9718C112.417 77.0933 112.07 77.306 111.803 77.612C111.536 77.917 111.341 78.3319 111.22 78.8536C111.099 79.3762 111.038 80.0387 111.038 80.8402V82.1012C111.038 82.9172 111.093 83.5788 111.202 84.0889C111.309 84.5979 111.491 84.9963 111.746 85.2828C112 85.5694 112.347 85.7666 112.787 85.8755C113.226 85.9833 113.784 86.0377 114.458 86.0377C114.827 86.0377 115.248 86.0183 115.719 85.9804C116.19 85.9415 116.668 85.8783 117.152 85.7889L116.693 88.0816C116.21 88.1963 115.719 88.2788 115.223 88.3293C114.726 88.3808 114.255 88.406 113.809 88.406Z" fill="white"/>
<path d="M128.004 74.6124L127.698 76.8857H121.795V80.1722H127.393L127.106 82.4454H121.795V85.9418H128.004L127.698 88.215H118.89V74.6124H128.004Z" fill="white"/>
<path d="M132.283 74.6124L137.633 83.6103V74.6124H140.345V88.215H137.786L132.436 79.2162V88.215H129.704V74.6124H132.283Z" fill="white"/>
<path d="M152.611 74.6124L152.286 76.9819H148.598V88.215H145.695V76.9819H141.682L142.007 74.6124H152.611Z" fill="white"/>
<path d="M156.776 80.9552H159.01C159.673 80.9552 160.163 80.7958 160.482 80.4782C160.8 80.1595 160.959 79.6942 160.959 79.0831V78.7771C160.959 77.5288 160.328 76.9051 159.068 76.9051H156.776L156.776 80.9552ZM163.787 79.0831C163.787 81.0057 162.972 82.2667 161.342 82.8661L164.283 88.215H161.112L158.59 83.21H156.776V88.215H153.948V74.6124H159.622C160.36 74.6124 160.994 74.7173 161.523 74.9272C162.051 75.138 162.484 75.4245 162.822 75.7869C163.159 76.1502 163.405 76.5767 163.558 77.0673C163.71 77.5579 163.787 78.0893 163.787 78.6634L163.787 79.0831Z" fill="white"/>
<path d="M174.734 74.6124L174.428 76.8857H168.524V80.1722H174.122L173.837 82.4454H168.524V85.9418H174.734L174.428 88.215H165.621V74.6124H174.734Z" fill="white"/>
<path d="M111.802 50.1635H114.993L113.407 44.9476L111.802 50.1635ZM115.605 52.4173H111.211L110.198 55.7796H107.371L111.899 42.177H114.955L119.598 55.7796H116.617L115.605 52.4173Z" fill="#FFD400"/>
<path d="M129.685 42.1772L129.361 44.5467H123.839V48.0236H128.863L128.539 50.3921H123.839V55.7799H120.935V42.1772H129.685Z" fill="#FFD400"/>
<path d="M133.945 48.5197H136.18C136.843 48.5197 137.333 48.3604 137.652 48.0427C137.97 47.7241 138.129 47.2597 138.129 46.6477V46.3417C138.129 45.0933 137.499 44.4696 136.238 44.4696H133.945V48.5197ZM140.957 46.6477C140.957 48.5712 140.142 49.8322 138.512 50.4307L141.453 55.7796H138.282L135.76 50.7746H133.945V55.7796H131.118V42.177H136.792C137.531 42.177 138.164 42.2819 138.693 42.4927C139.221 42.7025 139.654 42.9891 139.992 43.3514C140.329 43.7148 140.575 44.1422 140.728 44.6319C140.88 45.1224 140.957 45.6548 140.957 46.227L140.957 46.6477Z" fill="#FFD400"/>
<path d="M145.694 42.1778H142.791V55.7805H145.694V42.1778Z" fill="#FFD400"/>
<path d="M153.471 55.9712C152.375 55.9712 151.461 55.8411 150.729 55.5797C149.996 55.3184 149.407 54.9298 148.962 54.414C148.516 53.8981 148.2 53.255 148.016 52.4846C147.831 51.7143 147.739 50.8127 147.739 49.781V48.3869C147.739 47.4688 147.831 46.6227 148.016 45.8455C148.2 45.0684 148.522 44.3941 148.981 43.82C149.439 43.2469 150.051 42.799 150.814 42.4736C151.579 42.1491 152.541 41.9859 153.7 41.9859C154.35 41.9859 154.948 42.0374 155.495 42.1394C156.043 42.2415 156.496 42.3561 156.852 42.4833L156.374 44.6992C156.068 44.5982 155.721 44.5146 155.333 44.4505C154.944 44.3873 154.522 44.3553 154.062 44.3553C153.451 44.3553 152.932 44.4165 152.506 44.5369C152.078 44.6584 151.732 44.8711 151.464 45.1772C151.197 45.4822 151.003 45.897 150.881 46.4187C150.76 46.9413 150.7 47.6029 150.7 48.4053V49.6663C150.7 50.4823 150.754 51.1439 150.862 51.654C150.971 52.163 151.152 52.5603 151.407 52.8479C151.661 53.1345 152.008 53.3317 152.448 53.4395C152.888 53.5483 153.445 53.6017 154.119 53.6017C154.488 53.6017 154.909 53.5833 155.38 53.5444C155.852 53.5065 156.329 53.4434 156.813 53.354L156.355 55.6467C155.871 55.7613 155.38 55.8439 154.884 55.8944C154.387 55.9459 153.916 55.9712 153.471 55.9712Z" fill="#FFD400"/>
<path d="M162.01 50.1635H165.2L163.615 44.9476L162.01 50.1635ZM165.812 52.4173H161.418L160.405 55.7796H157.578L162.106 42.177H165.162L169.805 55.7796H166.824L165.812 52.4173Z" fill="#FFD400"/>
<path d="M173.721 42.1772L179.07 51.1761V42.1772H181.784V55.7799H179.224L173.874 46.782V55.7799H171.142V42.1772H173.721Z" fill="#FFD400"/>
<path d="M216.365 58.6185V36.2346H231.309L216.365 58.6185ZM214.44 70.0761L204.242 80.2455L214.44 64.9719V70.0761ZM214.044 62.0944L199.024 84.5929V58.4757L214.044 62.0944ZM190.448 54.4275L197.099 49.5555V56.0304L190.448 54.4275ZM197.099 36.2346V45.3228L185.302 36.2346H197.099ZM175.379 31.0207L179.647 34.3092H169.382L175.379 31.0207ZM158.872 18.3031L173.714 29.7384L165.712 34.1236L156.053 26.649L158.872 18.3031ZM181.249 2.75361L181.268 25.5969L175.558 28.727L160.047 16.7769L181.249 2.75361ZM214.44 33.1181L199.645 17.7192L214.44 9.61031V33.1181ZM222.822 28.3229L216.365 33.053V12.8045L222.822 28.3229ZM224.005 29.8433L230.147 34.3092H217.91L224.005 29.8433ZM212.732 59.7979L199.024 56.4949V49.237L212.732 59.7979ZM214.44 58.6826L199.915 47.4922L214.44 36.8506V58.6826ZM212.023 36.2346L199.024 45.7571V36.2346H212.023ZM199.024 19.8536L212.912 34.3092H199.024V19.8536ZM183.175 3.35597L196.514 17.2404L183.193 24.542L183.175 3.35597ZM181.274 33.1318L177.223 30.0104L181.27 27.7925L181.274 33.1318ZM183.195 26.7375L197.099 19.1152V34.3092H183.202L183.195 26.7375ZM234.068 35.1806C234.063 35.1311 234.055 35.0806 234.042 35.032C233.991 34.8309 233.875 34.6463 233.699 34.5103C233.699 34.5103 233.699 34.5093 233.698 34.5093C233.69 34.5035 233.682 34.4966 233.674 34.4909L224.788 28.0315L216.291 7.61489C216.186 7.36228 215.979 7.16603 215.721 7.0757C215.465 6.98537 215.18 7.00865 214.94 7.13982L198.264 16.2815L182.905 0.295782C182.584 -0.0393988 182.068 -0.0967144 181.679 0.159776L157.86 15.9142C157.849 15.922 157.838 15.9308 157.828 15.9385C157.815 15.9482 157.803 15.957 157.792 15.9657C157.751 15.9978 157.713 16.0328 157.679 16.0706C157.671 16.0794 157.665 16.0891 157.657 16.0979C157.626 16.1348 157.597 16.1746 157.571 16.2164C157.566 16.2232 157.562 16.2309 157.557 16.2387C157.529 16.2883 157.505 16.3407 157.486 16.3941C157.484 16.4 157.481 16.4038 157.479 16.4087L154.009 26.683C153.878 27.0716 154.007 27.501 154.331 27.7526L165.031 36.0315C165.032 36.0315 165.032 36.0325 165.033 36.0325C165.034 36.0334 165.035 36.0344 165.036 36.0344C165.077 36.0665 165.121 36.0947 165.166 36.119C165.192 36.1326 165.219 36.1423 165.245 36.154C165.267 36.1637 165.288 36.1744 165.31 36.1821C165.344 36.1938 165.378 36.2006 165.412 36.2084C165.429 36.2122 165.446 36.2181 165.463 36.221C165.516 36.2297 165.569 36.2346 165.622 36.2346H182.147L196.709 47.4532L187.635 54.1011C187.333 54.3226 187.187 54.6995 187.26 55.0667C187.334 55.4349 187.614 55.7264 187.978 55.8138L197.099 58.0113V87.7696C197.099 87.788 197.102 87.8046 197.104 87.823C197.106 87.8619 197.109 87.8997 197.115 87.9376C197.12 87.9649 197.128 87.9901 197.135 88.0163C197.143 88.0484 197.152 88.0805 197.165 88.1116C197.174 88.1378 197.186 88.163 197.198 88.1883C197.212 88.2174 197.228 88.2456 197.244 88.2738C197.26 88.2981 197.275 88.3204 197.292 88.3427C197.311 88.3689 197.332 88.3932 197.353 88.4175C197.374 88.4389 197.394 88.4593 197.416 88.4797C197.428 88.4904 197.438 88.503 197.45 88.5137C197.463 88.5244 197.477 88.5312 197.491 88.541C197.512 88.5565 197.533 88.571 197.555 88.5857C197.585 88.6041 197.615 88.6197 197.646 88.6343C197.668 88.645 197.689 88.6557 197.713 88.6644C197.749 88.6789 197.784 88.6887 197.821 88.6984C197.842 88.7032 197.861 88.71 197.883 88.7139C197.942 88.7256 198.001 88.7324 198.061 88.7324C198.124 88.7324 198.188 88.7256 198.25 88.713C198.28 88.7071 198.308 88.6964 198.337 88.6877C198.368 88.678 198.399 88.6712 198.43 88.6586C198.463 88.645 198.493 88.6265 198.524 88.609C198.548 88.5964 198.572 88.5857 198.595 88.5702C198.645 88.5371 198.692 88.4983 198.736 88.4565C198.736 88.4545 198.739 88.4526 198.741 88.4516V88.4507C198.742 88.4507 198.742 88.4497 198.743 88.4497L216.082 71.1575C216.263 70.9767 216.365 70.7319 216.365 70.4755V62.0868L233.908 35.8093C234.037 35.6179 234.089 35.3953 234.068 35.1806Z" fill="#FFD400"/>
</g>
<defs>
<clipPath id="clip0_3907_1109">
<rect width="234.073" height="96" fill="white"/>
</clipPath>
</defs>
</svg>
